<?xml version="1.0" encoding="UTF-8" standalone="no"?>
<!-- Created with Inkscape (http://www.inkscape.org/) -->

<svg
   width="270"
   height="270"
   viewBox="0 0 270 270"
   version="1.1"
   id="svg298"
   inkscape:version="1.2.1 (1:1.2.1+202210291243+9c6d41e410)"
   sodipodi:docname="itrt_paw.svg"
   xmlns:inkscape="http://www.inkscape.org/namespaces/inkscape"
   xmlns:sodipodi="http://sodipodi.sourceforge.net/DTD/sodipodi-0.dtd"
   xmlns="http://www.w3.org/2000/svg"
   xmlns:svg="http://www.w3.org/2000/svg">
  <sodipodi:namedview
     id="namedview300"
     pagecolor="#ffffff"
     bordercolor="#666666"
     borderopacity="1.0"
     inkscape:showpageshadow="2"
     inkscape:pageopacity="0.0"
     inkscape:pagecheckerboard="0"
     inkscape:deskcolor="#d1d1d1"
     inkscape:document-units="px"
     showgrid="false"
     inkscape:zoom="1.9704153"
     inkscape:cx="141.59451"
     inkscape:cy="127.63806"
     inkscape:window-width="1920"
     inkscape:window-height="1016"
     inkscape:window-x="0"
     inkscape:window-y="0"
     inkscape:window-maximized="1"
     inkscape:current-layer="svg298" />
  <defs
     id="defs295" />
  <path
     fill="#000000"
     d="M 87.064408,3.3500852 C 102.5614,0.86136221 118.97769,19.746378 123.70559,45.804771 128.43348,71.716769 119.897,94.847253 104.40002,97.482372 89.034364,100.11749 72.486735,81.232475 67.62751,55.174082 62.768286,29.262083 71.567422,6.1315991 87.064408,3.3500852 m 93.901232,0 c 15.62832,2.7815139 24.29611,25.9119978 19.69955,51.8239968 -4.99055,26.058393 -21.40685,44.943408 -36.90383,42.30829 C 148.13304,94.847253 139.59656,71.716769 144.45579,45.804771 149.18368,19.746378 165.59998,0.86136221 180.96564,3.3500852 M 16.802649,70.692001 c 14.971665,-7.173378 35.327875,5.855819 45.965637,28.547116 9.98111,23.130483 6.56652,47.432133 -8.273815,54.605503 C 39.654137,161.01801 19.429256,148.13521 9.0541556,125.15111 -1.3209453,102.16703 2.3563057,77.718984 16.802649,70.692001 m 236.394701,0 c 14.44634,7.026983 18.1236,31.475029 7.74849,54.459109 -10.37509,22.9841 -30.59997,35.8669 -45.44031,28.69351 -14.84034,-7.17337 -18.25492,-31.47502 -8.27382,-54.605503 10.63777,-22.691297 30.99398,-35.720494 45.96564,-28.547116"
     id="path312"
     style="display:inline;fill:#ff7f00;fill-opacity:1;stroke:#000000;stroke-width:6.257;stroke-dasharray:none"
     sodipodi:nodetypes="ccccccccccccssccsscc" />
  <g
     inkscape:groupmode="layer"
     id="layer2"
     inkscape:label="Paw Print" />
  <g
     inkscape:label="Robot"
     inkscape:groupmode="layer"
     id="layer1"
     style="display:inline">
    <path
       fill="#000000"
       d="m 193.6792,195.54605 h -5.86792 c 0,-22.70885 -18.36659,-41.07543 -41.07543,-41.07543 h -5.86793 v -7.45226 c 3.52076,-1.99509 5.86793,-5.80924 5.86793,-10.15149 0,-6.45473 -5.22246,-11.73585 -11.73585,-11.73585 -6.51339,0 -11.73584,5.28112 -11.73584,11.73585 0,4.34225 2.34716,8.1564 5.86792,10.15149 v 7.45226 h -5.86792 c -22.70885,0 -41.075435,18.36658 -41.075435,41.07543 h -5.86792 c -3.227354,0 -5.867918,2.64056 -5.867918,5.86793 v 17.60374 c 0,3.22737 2.640564,5.86793 5.867918,5.86793 h 5.86792 v 5.86792 c 0,6.51339 5.281128,11.73584 11.735841,11.73584 h 82.150864 c 6.5134,0 11.73585,-5.22245 11.73585,-11.73584 v -5.86792 h 5.86792 c 3.22736,0 5.86791,-2.64056 5.86791,-5.86793 v -17.60374 c 0,-3.22737 -2.64055,-5.86793 -5.86791,-5.86793 m -71.6473,14.66979 c -2.28849,-5.16376 -7.39358,-8.80186 -13.43753,-8.80186 -6.04396,0 -11.149055,3.6381 -13.437543,8.80186 -0.762829,-1.81904 -1.232262,-3.75546 -1.232262,-5.86791 0,-8.09773 6.572075,-14.66981 14.669805,-14.66981 8.09773,0 14.66979,6.57208 14.66979,14.66981 0,2.11245 -0.46944,4.04887 -1.23226,5.86791 m 52.81128,0 c -2.28849,-5.16376 -7.56961,-8.80186 -13.43755,-8.80186 -5.86791,0 -11.14904,3.6381 -13.43752,8.80186 -0.76283,-1.81904 -1.23226,-3.75546 -1.23226,-5.86791 0,-8.09773 6.57205,-14.66981 14.66978,-14.66981 8.09774,0 14.6698,6.57208 14.6698,14.66981 0,2.11245 -0.46943,4.04887 -1.23225,5.86791 z"
       id="path302"
       style="display:none;fill:#000000;fill-opacity:1;stroke-width:5.86792" />
  </g>
  <path
     fill="#000000"
     d="m 117.42244,135.03978 h 35.15512 c 33.97737,0 61.52148,27.54409 61.52148,61.52146 h 8.78877 c 4.85392,0 8.78879,3.93488 8.78878,8.7888 v 26.36633 c 0,4.85391 -3.93487,8.78878 -8.78878,8.78878 h -8.78877 v 8.78879 c 0,9.70783 -7.86975,17.57757 -17.57758,17.57756 H 73.478534 c -9.707818,0 -17.57756,-7.86974 -17.577562,-17.57756 v -8.78879 H 47.11219 c -4.853909,0 -8.78878,-3.93487 -8.788781,-8.78878 v -26.36633 c -10e-6,-4.85392 3.934864,-8.7888 8.788781,-8.7888 h 8.788782 c 5e-6,-33.97737 27.544105,-61.52146 61.521468,-61.52146 h 35.15512 m -57.127074,52.73269 c -12.134777,0 -21.971956,9.83718 -21.971952,21.97196 7e-6,12.13477 9.837183,21.97194 21.971952,21.97194 12.134764,0 21.971944,-9.83717 21.971954,-21.97194 0,-12.13478 -9.83718,-21.97196 -21.971954,-21.97196 m 79.099034,0 c -12.13478,0 -21.97196,9.83718 -21.97196,21.97196 1e-5,12.13477 9.83719,21.97194 21.97196,21.97194 12.13476,-1e-5 21.97193,-9.83718 21.97194,-21.97194 0,-12.13477 -9.83717,-21.97195 -21.97194,-21.97196 z"
     id="path2357"
     style="fill:#ff7f00;fill-opacity:1;stroke:#000000;stroke-width:6.257;stroke-dasharray:none;stroke-opacity:1"
     sodipodi:nodetypes="cscsssscscsscsscscsccssscsssss" />
</svg>
